<svg xmlns="http://www.w3.org/2000/svg" xmlns:xlink="http://www.w3.org/1999/xlink" >
    <symbol id="geometric" width="100%" height="100%" viewBox="0 0 1440 700">
        <defs>
            <clipPath id="clip-path">
            <rect id="Rectangle_2" data-name="Rectangle 2" width="1440" height="700" transform="translate(0 0)" fill="none"/>
            </clipPath>
        </defs>
        <g id="Group_7" data-name="Group 7" clip-path="url(#clip-path)">
            <g id="Group_6" data-name="Group 6" transform="translate(-222.606 -119.23)">
                <g id="Group_5" data-name="Group 5" transform="translate(0 532.562)" style="mix-blend-mode: multiply;isolation: isolate">
                    <path id="Path_89" data-name="Path 89" d="M381.556,518c-24.019-13.445-25.143-46.386-11.056-68.537s38.626-36.8,60.438-53.036,42.782-37.1,44.583-62.6c2.3-32.608-27.491-62.21-23.674-94.7,2.977-25.324,25.831-44.48,49.849-55.173,13.58-6.046,29.276-8.168,43.333-13.163,63.75-22.653,120.427,13.918,160.147-15.831,43.008-32.212,40.816-68.259,32.869-86.023-10.18-22.755-44.276-73.15-111.409-59.266-27.272,5.64-55.26,10.436-83.181,8.869-41.8-2.345-82.462-32.111-85.13-69.936-1.828-25.924,13.033-52.887,2.69-77.119-6.953-16.287-24.556-27.555-43.335-31.563s-38.584-1.6-57.144,3.169" transform="translate(-360.535 338.802)" fill="none" stroke="#fff" stroke-miterlimit="10" stroke-width="1"/>
                    <path id="Path_90" data-name="Path 90" d="M383.795,519.4c-23.876-14.711-26.045-48.365-11.961-71.528,13.746-22.609,38.422-37.678,60.611-53.635,21.929-15.768,43.07-35.622,45.965-60.326,3.672-31.576-23.38-61.041-19.4-93.477,3.232-25.792,24.359-45.649,47.535-57.6,13.314-6.866,29.079-10.042,43.55-15.433,61.347-22.855,116.528,12.016,155.292-17.145,41.678-31.379,40.5-66.628,33.069-84.574-9.421-22.742-42.268-71.328-106.9-59.223-26.643,4.99-54.3,9.038-81.835,7.361-40.56-2.4-79.846-30.944-83.4-67.539-2.456-25.318,10.984-52.016.892-76.11-6.875-16.5-23.721-28.142-41.87-32.981-18.318-4.883-37.958-3.7-56.7.186" transform="translate(-358.192 337.233)" fill="none" stroke="#fbfbfb" stroke-miterlimit="10" stroke-width="1"/>
                    <path id="Path_91" data-name="Path 91" d="M385.914,520.992C362.106,505,358.9,470.62,373.015,446.421c13.459-23.072,38.326-38.582,60.967-54.26,22.1-15.308,43.485-34.15,47.48-58.058,5.047-30.548-19.44-59.9-15.21-92.283,3.432-26.281,22.972-46.875,45.378-60.068,13.1-7.711,28.971-11.928,43.9-17.726,59.168-22.983,113,10.1,150.933-18.478C746.942,115,746.772,80.541,739.829,62.4,731.13,39.666,699.4-7.147,637.1,3.2c-26.114,4.335-53.5,7.633-80.744,5.844-39.448-2.45-77.5-29.79-81.923-65.149-3.094-24.727,8.977-51.16-.893-75.126-6.817-16.72-22.97-28.757-40.541-34.423-17.924-5.78-37.45-5.813-56.424-2.821" transform="translate(-356.797 335.466)" fill="none" stroke="#f6f6f6" stroke-miterlimit="10" stroke-width="1"/>
                    <path id="Path_92" data-name="Path 92" d="M388.03,522.8c-23.741-17.294-27.979-52.414-13.836-77.674,13.183-23.544,38.233-39.512,61.331-54.914,22.278-14.854,43.906-32.679,49-55.793,6.422-29.526-15.461-58.763-11.027-91.118,3.67-26.783,21.589-48.165,43.231-62.583,12.881-8.582,28.865-13.829,44.252-20.047,57.027-23.046,109.5,8.177,146.6-19.829,39.293-29.731,40.121-63.4,33.672-81.746C733.267,36.371,702.631-8.71,642.67-.11,617.064,3.562,589.956,6.037,563,4.205c-38.334-2.6-75.182-28.647-80.465-62.768-3.738-24.149,6.915-50.3-2.675-74.163-6.806-16.937-22.229-29.4-39.219-35.892-17.542-6.7-36.948-7.949-56.159-5.854" transform="translate(-355.419 333.485)" fill="none" stroke="#f2f2f2" stroke-miterlimit="10" stroke-width="1"/>
                    <path id="Path_93" data-name="Path 93" d="M390.146,524.828c-23.68-18.613-28.939-54.491-14.773-80.836,12.917-24.023,38.137-40.471,61.7-55.6,22.447-14.406,44.334-31.208,50.521-53.53,7.794-28.506-11.487-57.643-6.854-89.978,3.911-27.3,20.207-49.514,41.094-65.147,12.668-9.482,28.763-15.747,44.611-22.4,54.923-23.051,106.018,6.238,142.3-21.2,38.112-28.914,39.934-61.792,33.981-80.363-7.286-22.729-36.861-66.118-94.463-59.239-25.117,3-51.937,4.7-78.6,2.776-37.233-2.688-72.9-27.515-79.021-60.389-4.392-23.584,4.9-49.462-4.456-73.222-6.762-17.172-21.5-30.085-37.9-37.39-17.17-7.644-36.454-10.11-55.9-8.919" transform="translate(-354.057 331.29)" fill="none" stroke="#eee" stroke-miterlimit="10" stroke-width="1"/>
                    <path id="Path_94" data-name="Path 94" d="M392.262,527.053C368.641,507.1,362.367,470.449,376.55,443c12.663-24.511,38.044-41.459,62.087-56.3,22.615-13.964,44.814-29.718,52.051-51.262,9.226-27.467-7.513-56.529-2.687-88.856,4.156-27.832,18.82-50.922,38.966-67.76,12.453-10.408,28.668-17.682,44.978-24.781,52.852-23,102.557,4.281,138.028-22.594,36.94-28.1,39.749-60.189,34.3-78.994-6.592-22.731-35.136-64.472-90.36-59.288C629.259-4.53,602.74-3.6,576.356-5.624c-36.139-2.771-70.65-26.388-77.591-58.006-5.056-23.03,2.895-48.637-6.234-72.3-6.72-17.417-20.77-30.8-36.6-38.916-16.8-8.616-35.966-12.3-55.658-12.017" transform="translate(-352.71 328.896)" fill="none" stroke="#e9e9e9" stroke-miterlimit="10" stroke-width="1"/>
                    <path id="Path_95" data-name="Path 95" d="M394.378,529.411c-23.567-21.311-30.848-58.743-16.652-87.33,12.418-25,37.95-42.468,62.478-57.029,22.78-13.524,45.26-28.226,53.587-48.977,10.606-26.433-3.541-55.414,1.477-87.739,4.4-28.373,17.423-52.377,36.846-70.412,12.233-11.359,28.577-19.633,45.35-27.193,50.815-22.905,99.115,2.3,133.781-24.007C747.019,99.445,750.809,68.15,745.86,49.1c-5.908-22.734-33.449-62.868-86.275-59.349a524.109,524.109,0,0,1-76.516-.352c-35.053-2.85-68.438-25.261-76.174-55.607-5.732-22.482.893-47.812-8.012-71.373-6.678-17.666-20.044-31.539-35.3-40.464-16.436-9.616-35.483-14.507-55.42-15.152" transform="translate(-351.377 326.367)" fill="none" stroke="#e5e5e5" stroke-miterlimit="10" stroke-width="1"/>
                    <path id="Path_96" data-name="Path 96" d="M396.495,531.777c-23.516-22.68-31.8-60.9-17.594-90.626,12.181-25.5,37.858-43.489,62.879-57.756,22.945-13.083,45.713-26.714,55.132-46.663,11.986-25.384.434-54.279,5.638-86.6,4.656-28.918,16.017-53.862,34.734-73.086,12.008-12.332,28.495-21.595,45.731-29.629,48.807-22.752,95.693.3,129.558-25.431,34.613-26.448,39.38-56.934,34.938-76.228-5.233-22.73-32.519-67.628-82.206-59.4-23.441,3.88-49.66.285-75.493-1.941-33.972-2.928-66.263-24.124-74.771-53.177-6.423-21.932-1.106-46.973-9.79-70.431-6.634-17.919-19.319-32.3-34.008-42.025-16.071-10.64-35.007-16.742-55.191-18.319" transform="translate(-350.057 323.83)" fill="none" stroke="#e1e1e1" stroke-miterlimit="10" stroke-width="1"/>
                    <path id="Path_97" data-name="Path 97" d="M398.614,534.144c-23.47-24.062-32.747-63.063-18.54-93.948,11.955-25.989,37.769-44.519,63.292-58.483,23.108-12.642,46.171-25.182,56.686-44.317,13.364-24.32,4.412-53.124,9.8-85.435,4.913-29.464,14.6-55.374,32.628-75.779,11.774-13.324,28.42-23.565,46.119-32.088,46.829-22.55,92.288-1.719,125.359-26.868,33.46-25.6,39.2-55.265,35.269-74.808-4.568-22.72-30.788-66.653-78.155-59.451-23.084,3.51-48.918-1.214-74.482-3.547-32.9-3-64.13-22.977-73.382-50.712-7.132-21.38-3.1-46.121-11.57-69.471a95.173,95.173,0,0,0-32.722-43.6c-15.7-11.689-34.537-19-54.974-21.518" transform="translate(-348.75 321.294)" fill="none" stroke="#dcdcdc" stroke-miterlimit="10" stroke-width="1"/>
                    <path id="Path_98" data-name="Path 98" d="M400.735,536.51c-23.428-25.455-33.694-65.24-19.488-97.292,11.736-26.48,37.681-45.562,63.715-59.21,23.272-12.2,46.635-23.631,58.249-41.942,14.742-23.243,8.394-51.951,13.962-84.25,5.173-30.01,13.162-56.907,30.527-78.49,11.533-14.334,28.355-25.543,46.516-34.567,44.878-22.3,88.9-3.762,121.181-28.317,32.312-24.749,39.015-53.57,35.6-73.364-3.911-22.706-29.033-65.594-74.115-59.492-22.777,3.083-48.185-2.728-73.485-5.17C571.573-28.656,541.363-47.4,531.4-73.8c-7.861-20.823-5.1-45.253-13.351-68.491a104.393,104.393,0,0,0-31.441-45.181,114.782,114.782,0,0,0-54.764-24.747" transform="translate(-347.454 318.757)" fill="none" stroke="#d8d8d8" stroke-miterlimit="10" stroke-width="1"/>
                    <path id="Path_99" data-name="Path 99" d="M402.859,538.877c-23.39-26.861-34.641-67.43-20.441-100.66,11.524-26.97,37.6-46.617,64.151-59.939,23.435-11.757,47.107-22.062,59.824-39.536,16.122-22.152,12.384-50.759,18.13-83.041,5.439-30.559,11.714-58.459,28.432-81.22,11.28-15.36,28.3-27.528,46.92-37.07C642.828,115.4,685.4,131.585,716.9,107.633c31.169-23.881,38.831-51.848,35.948-71.9-3.263-22.685-27.253-64.446-70.087-59.525-22.521,2.587-47.461-4.253-72.5-6.808-30.768-3.139-59.993-20.64-70.641-45.687-8.614-20.261-7.09-44.373-15.135-67.493a115.461,115.461,0,0,0-30.166-46.777,114.828,114.828,0,0,0-54.565-28.008" transform="translate(-346.17 316.22)" fill="none" stroke="#d4d4d4" stroke-miterlimit="10" stroke-width="1"/>
                    <path id="Path_100" data-name="Path 100" d="M404.986,541.243c-23.356-28.276-35.587-69.631-21.4-104.05,11.32-27.46,37.515-47.683,64.6-60.667,23.6-11.315,47.585-20.475,61.411-37.1,17.5-21.048,16.384-49.548,22.3-81.81,5.709-31.111,10.25-60.028,26.34-83.969,11.02-16.4,28.256-29.517,47.334-39.593,41.051-21.682,82.162-7.909,112.883-31.249,30.033-23,38.649-50.1,36.3-70.405-2.623-22.66-25.5-55.417-66.068-59.553-22.286-2.271-46.745-5.792-71.528-8.462-29.71-3.2-57.989-19.445-69.289-43.128-9.392-19.688-9.084-43.479-16.925-66.477-6.456-18.936-16.373-35.508-28.9-48.383a115.212,115.212,0,0,0-54.376-31.3" transform="translate(-344.895 313.684)" fill="none" stroke="#cfcfcf" stroke-miterlimit="10" stroke-width="1"/>
                    <path id="Path_101" data-name="Path 101" d="M407.117,543.609c-23.326-29.7-36.535-71.844-22.361-107.462,11.123-27.951,37.436-48.761,65.059-61.4,23.767-10.872,48.071-18.871,63.011-34.639,18.888-19.933,20.4-48.318,26.488-80.559,5.983-31.662,8.771-61.61,24.249-86.736,10.75-17.45,28.227-31.509,47.757-42.136,39.173-21.317,78.86-9.953,108.759-32.733,28.946-22.053,38.465-48.333,36.655-68.891-1.993-22.632-23.975-54.1-62.058-59.574-21.949-3.157-46.036-7.342-70.568-10.133-28.658-3.26-56.031-18.226-67.948-40.538-10.2-19.1-11.081-42.571-18.719-65.443-6.41-19.193-15.617-36.342-27.627-50a115.947,115.947,0,0,0-54.2-34.617" transform="translate(-343.63 311.147)" fill="none" stroke="#cbcbcb" stroke-miterlimit="10" stroke-width="1"/>
                    <path id="Path_102" data-name="Path 102" d="M409.252,545.976c-23.3-31.14-37.483-74.069-23.328-110.9,10.933-28.442,37.362-49.851,65.529-62.125,23.937-10.43,48.566-17.251,64.625-32.147C536.355,322,540.5,293.737,546.761,261.523s7.277-63.2,22.16-89.52c10.469-18.512,28.211-33.5,48.188-44.7,37.315-20.918,75.517-12.076,104.647-34.227,27.815-21.151,38.28-46.539,37.019-67.354-1.37-22.6-22.45-52.847-58.051-59.588-21.618-4.094-45.335-8.9-69.618-11.818C603.5-49,576.991-62.666,564.491-83.6c-11.043-18.5-13.081-41.652-20.52-64.392-6.363-19.45-14.853-37.183-26.362-51.625a117.007,117.007,0,0,0-54.026-37.965" transform="translate(-342.373 308.611)" fill="none" stroke="#c7c7c7" stroke-miterlimit="10" stroke-width="1"/>
                    <path id="Path_103" data-name="Path 103" d="M411.393,548.342c-23.279-32.588-38.434-76.306-24.3-114.351,10.748-28.934,37.291-50.954,66.014-62.855,24.108-9.988,49.067-15.615,66.253-29.628,21.668-17.669,28.457-45.8,34.889-77.99,6.549-32.769,5.769-64.807,20.072-92.322,10.18-19.585,28.209-35.491,48.629-47.284,35.475-20.488,72.18-14.218,100.546-35.732,26.687-20.24,38.093-44.724,37.389-65.8-.753-22.568-20.914-51.673-54.046-59.6-21.286-5.09-44.641-10.473-68.68-13.518C611.594-54.1,585.917-66.432,572.865-86c-11.918-17.867-15.084-40.718-22.327-63.323-6.315-19.709-14.079-38.032-25.1-53.262a118.406,118.406,0,0,0-53.864-41.342" transform="translate(-341.126 306.074)" fill="none" stroke="#c2c2c2" stroke-miterlimit="10" stroke-width="1"/>
                    <path id="Path_104" data-name="Path 104" d="M413.539,550.709c-23.261-34.047-39.386-78.554-25.281-117.827,10.568-29.426,37.223-52.069,66.509-63.584,24.283-9.547,49.578-13.964,67.894-27.083,23.068-16.521,32.514-44.522,39.113-76.676,6.839-33.325,4.245-66.419,17.98-95.14,9.882-20.666,28.227-37.478,49.079-49.889,33.654-20.03,68.846-16.381,96.451-37.247,25.558-19.319,37.9-42.888,37.767-64.216-.143-22.533-19.354-50.575-50.042-59.6-20.938-6.157-43.953-12.053-67.749-15.234-25.519-3.411-50.4-14.383-63.976-32.591-12.828-17.206-17.092-39.773-24.142-62.239-6.265-19.969-13.3-38.885-23.839-54.908a120.092,120.092,0,0,0-53.711-44.746" transform="translate(-339.885 303.538)" fill="none" stroke="#bebebe" stroke-miterlimit="10" stroke-width="1"/>
                    <path id="Path_105" data-name="Path 105" d="M415.689,553.075c-23.246-35.515-40.341-80.814-26.267-121.323,10.394-29.918,37.16-53.2,67.017-64.315,24.459-9.107,50.1-12.3,69.55-24.51,24.473-15.364,36.587-43.222,43.352-75.342,7.135-33.88,2.707-68.036,15.887-97.975,9.577-21.756,28.265-39.457,49.537-52.511,31.85-19.546,65.514-18.565,92.361-38.773,24.43-18.388,37.711-41.034,38.152-62.614.459-22.5-17.753-49.55-46.036-59.594-20.563-7.3-43.272-13.641-66.827-16.963-24.477-3.452-48.593-13.02-62.668-29.885-13.774-16.5-19.106-38.816-25.964-61.138-6.216-20.229-12.5-39.743-22.579-56.564a122.084,122.084,0,0,0-53.566-48.178" transform="translate(-338.653 301.001)" fill="none" stroke="#bababa" stroke-miterlimit="10" stroke-width="1"/>
                    <path id="Path_106" data-name="Path 106" d="M417.844,555.44c-23.235-36.993-41.3-83.085-27.258-124.839,10.224-30.414,37.1-54.34,67.533-65.046,24.639-8.668,50.6-10.655,71.22-21.913,25.858-14.244,40.679-41.9,47.607-73.987,7.437-34.437,1.156-69.66,13.79-100.827,9.263-22.851,28.326-41.424,50-55.152,30.06-19.038,62.14-20.816,88.27-40.308,23.266-17.493,37.514-39.159,38.542-60.992,1.057-22.462-16.089-48.592-42.023-59.584a273.49,273.49,0,0,0-65.909-18.707C636.18-69.4,612.811-77.521,598.256-93.066c-14.752-15.755-21.125-37.846-27.8-60.02-6.164-20.49-11.7-40.6-21.317-58.231a124.337,124.337,0,0,0-53.425-51.636" transform="translate(-337.427 298.464)" fill="none" stroke="#b5b5b5" stroke-miterlimit="10" stroke-width="1"/>
                    <path id="Path_107" data-name="Path 107" d="M420,557.808c-23.226-38.482-42.253-85.368-28.256-128.376,10.059-30.908,37.042-55.494,68.059-65.777,24.823-8.229,51.144-8.952,72.9-19.289C560,331.309,577.5,303.8,584.594,271.753c7.744-34.995-.409-71.288,11.688-103.7,8.941-23.953,28.411-43.375,50.475-57.813,28.286-18.509,58.807-23.032,84.178-41.854,22.14-16.538,37.313-37.267,38.938-59.349,1.65-22.427-14.343-47.686-38-59.568a222.906,222.906,0,0,0-65-20.465c-22.4-3.518-45.036-10.138-60.061-24.39-15.761-14.949-23.151-36.864-29.636-58.887-6.111-20.753-10.89-41.464-20.055-59.906a126.842,126.842,0,0,0-53.293-55.121" transform="translate(-336.207 295.928)" fill="none" stroke="#b1b1b1" stroke-miterlimit="10" stroke-width="1"/>
                    <path id="Path_108" data-name="Path 108" d="M422.172,560.174c-23.221-39.979-43.214-87.663-29.262-131.931,9.9-31.405,36.99-56.662,68.6-66.509,25.012-7.791,51.7-7.233,74.6-16.64,28.725-11.859,48.99-39.206,56.179-71.221,8.127-35.536-1.987-72.92,9.581-106.578,8.613-25.061,28.53-45.306,50.957-60.49C679.355,88.844,708.3,81.54,732.91,63.4c21.015-15.574,37.108-35.358,39.34-57.686,2.238-22.393-12.491-46.814-33.975-59.547-19.064-11.3-41.253-18.445-64.092-22.235-21.36-3.544-43.269-8.612-58.764-21.6-16.793-14.079-25.146-35.882-31.487-57.738-6.016-21.027-10.07-42.327-18.789-61.591a129.6,129.6,0,0,0-53.167-58.631" transform="translate(-334.994 293.391)" fill="none" stroke="#adadad" stroke-miterlimit="10" stroke-width="1"/>
                    <path id="Path_109" data-name="Path 109" d="M424.349,562.541c-23.216-41.488-44.11-89.949-30.273-135.506,9.784-31.889,36.939-57.843,69.14-67.239,25.2-7.355,52.252-5.5,76.313-13.968,30.17-10.649,53.115-37.845,60.5-69.809,8.413-36.1-3.577-74.556,7.467-109.477,8.279-26.174,28.684-47.21,51.445-63.187,24.785-17.4,52.125-27.515,75.98-44.975,19.885-14.6,36.9-33.434,39.748-56,2.822-22.36-10.512-45.948-29.936-59.519C726.373-69.968,704.14-77.2,681.54-81.164c-20.322-3.564-41.493-7.022-57.466-18.788-17.839-13.14-27.206-34.871-33.346-56.574-5.977-21.286-9.243-43.189-17.522-63.284a132.558,132.558,0,0,0-53.043-62.167" transform="translate(-333.757 290.854)" fill="none" stroke="#a8a8a8" stroke-miterlimit="10" stroke-width="1"/>
                    <path id="Path_110" data-name="Path 110" d="M426.53,564.907c-23.221-43-45.15-92.285-31.3-139.1,9.587-32.4,36.9-59.037,69.713-67.972,25.4-6.918,52.829-3.749,78.058-11.27,31.632-9.429,57.278-36.47,64.851-68.38,8.7-36.67-5.183-76.2,5.346-112.39,7.94-27.293,28.889-49.081,51.953-65.9s48.786-29.783,71.889-46.549c18.759-13.615,36.693-31.494,40.171-54.3,3.4-22.332-8.388-45.056-25.891-59.488s-39.937-21.668-62.3-25.818c-19.288-3.578-39.706-5.37-56.183-15.948-18.9-12.132-29.286-33.849-35.226-55.395s-8.41-44.052-16.256-64.987a135.725,135.725,0,0,0-52.94-65.726" transform="translate(-332.585 288.318)" fill="none" stroke="#a4a4a4" stroke-miterlimit="10" stroke-width="1"/>
                </g>
                <g id="Group_9" data-name="Group 9" transform="translate(1891.242 -67) rotate(34)" style="mix-blend-mode: multiply;isolation: isolate">
                    <path id="Path_89-2" data-name="Path 89" d="M-138.617,1109.62c-34.619-16.811-28.073-70.532-.178-109.88s70.44-68.674,109.066-100.008,77.093-70.065,86.389-112.24c11.884-53.919-27.791-95.946-13.537-150,11.111-42.133,52.128-78.479,92.847-101.211,23.023-12.854,48.4-19.738,71.916-30.974,106.631-50.953,187.1-3.346,257.485-60.706,76.215-62.109,81.856-120.688,73.767-148.065-10.362-35.067-51.594-110.224-161.361-72.9-44.592,15.161-90.1,29.1-133.9,32.59-65.574,5.234-122.406-34.7-117.07-96.089,3.658-42.073,34-89.472,23.748-126.925-6.889-25.172-31.9-39.811-60.614-42.3S29.27-3.332-1.312,8.506" transform="translate(-30.425 197.216)" fill="none" stroke="#fff" stroke-miterlimit="10" stroke-width="1"/>
                    <path id="Path_90-2" data-name="Path 90" d="M-139.922,1115.611c-34.2-18.841-29.154-73.366-.956-114.286,27.523-39.941,70.5-69.941,109.745-100.849,38.788-30.543,77.357-67.593,88.182-108.6,13.79-52.4-21.728-94.661-7.234-148.535,11.634-42.854,50.179-79.9,89.986-104.482,22.868-14.12,48.7-22.744,73.029-34.7,103.154-50.709,181.964-5.74,250.856-61.837,74.076-60.355,81.1-117.7,73.821-145.413-9.222-35.114-49.12-107.359-154.771-73.5C339.18,237.364,294.258,250,250.963,253.256c-63.787,4.915-118.958-33.181-115.367-92.211,2.484-40.84,30.551-87.4,20.605-124.573C149.447,11.006,125.638-4.353,98.044-8.307,70.194-12.3,38.716-6.083,7.988,4.343" transform="translate(-25.004 190.474)" fill="none" stroke="#fbfbfb" stroke-miterlimit="10" stroke-width="1"/>
                    <path id="Path_91-2" data-name="Path 91" d="M-139.976,1122.189c-33.8-20.875-30.254-76.2-1.743-118.718,27.183-40.534,70.59-71.229,110.5-101.713,38.967-29.765,77.671-65.13,90.029-104.964,15.7-50.885-15.826-93.375-.963-147.078,12.061-43.578,48.282-81.4,87.195-107.782,22.745-15.42,49.026-25.753,74.2-38.455,99.779-50.349,176.987-8.162,244.434-63.006,72-58.613,80.387-114.727,73.918-142.78-8.105-35.151-46.741-104.528-148.321-74.1-42.578,12.756-86.921,24.1-129.749,27.12-62.055,4.6-115.633-31.66-113.772-88.32,1.3-39.623,27.125-85.332,17.469-122.237C156.593,14.4,133.957-1.7,107.466-7.1,80.443-12.616,49.43-8.415,18.534.6" transform="translate(-21.275 183.206)" fill="none" stroke="#f6f6f6" stroke-miterlimit="10" stroke-width="1"/>
                    <path id="Path_92-2" data-name="Path 92" d="M-140.135,1129.6c-33.407-22.921-31.34-79.057-2.526-123.181C-115.8,965.293-71.979,933.887-31.4,903.826,7.74,874.835,46.591,841.158,60.479,802.493c17.61-49.371-9.85-92.1,5.308-145.636C78.334,612.542,112.18,573.9,150.2,545.75c22.628-16.752,49.352-28.763,75.372-42.221C322,453.649,397.592,492.937,463.6,439.343c69.916-56.873,79.672-111.751,74.019-140.158-7-35.186-44.4-101.749-141.88-74.7-41.626,11.549-85.34,21.482-127.728,24.384C207.72,253,155.67,218.719,155.824,164.436c.11-38.42,23.6-83.226,14.336-119.911C163.586,18.491,142.192,1.6,116.809-5.238,90.6-12.3,60.065-10.1,29-2.5" transform="translate(-17.449 175.106)" fill="none" stroke="#f2f2f2" stroke-miterlimit="10" stroke-width="1"/>
                    <path id="Path_93-2" data-name="Path 93" d="M-140.4,1137.846c-33.013-24.974-32.415-81.924-3.3-127.675,26.546-41.719,70.769-73.856,112.03-103.488,39.3-28.226,78.31-60.207,93.728-97.7,19.518-47.86-3.87-90.835,11.576-144.206,13.041-45.061,44.509-84.587,81.636-114.459,22.518-18.118,49.683-31.775,76.551-46C324.933,455,398.883,491.281,463.45,438.933,531.291,383.8,542.4,330.16,537.574,301.387c-5.91-35.215-42.11-99.023-135.446-75.316-40.7,10.337-83.782,18.943-125.713,21.644-58.549,3.77-109.074-28.651-110.6-80.548-1.093-37.232,20.154-81.164,11.205-117.6-6.466-26.33-26.675-44.026-50.948-52.275-25.4-8.632-55.456-8.418-86.688-2.245" transform="translate(-13.524 166.173)" fill="none" stroke="#eee" stroke-miterlimit="10" stroke-width="1"/>
                    <path id="Path_94-2" data-name="Path 94" d="M-140.763,1146.865c-32.618-27.04-33.477-84.806-4.076-132.2,26.25-42.313,70.854-75.2,112.8-104.4,39.459-27.467,78.7-57.731,95.581-94.072,21.518-46.332,2.116-89.571,17.843-142.785,13.541-45.814,42.622-86.272,78.869-117.837,22.4-19.511,50.016-34.787,77.735-49.8,89.822-48.652,162.118-15.477,225.248-66.582,65.772-53.4,78.229-105.792,74.233-134.943-4.83-35.238-39.858-96.358-129.018-75.94-39.8,9.113-82.224,16.4-123.7,18.895-56.814,3.418-105.847-27.157-109.02-76.658-2.311-36.056,16.713-79.108,8.077-115.291-6.358-26.635-25.382-45.159-48.548-54.8C110.674-9.786,81.1-11.541,49.695-6.794" transform="translate(-9.508 156.468)" fill="none" stroke="#e9e9e9" stroke-miterlimit="10" stroke-width="1"/>
                    <path id="Path_95-2" data-name="Path 95" d="M-141.186,1156.407c-32.223-29.112-34.529-87.7-4.845-136.751C-120.065,976.749-75.1,943.1-32.447,914.339c39.611-26.714,79.036-55.256,97.436-90.432C88.425,779.1,73.1,735.6,89.1,682.539c14.045-46.572,40.72-88,76.107-121.235,22.287-20.931,50.352-37.8,78.924-53.616,86.557-47.915,157.18-17.938,218.879-67.8,63.7-51.663,77.5-102.8,74.342-132.339-3.765-35.256-37.646-93.76-122.6-76.571-38.924,7.876-80.673,13.854-121.7,16.139-55.084,3.071-102.662-25.666-107.449-72.76-3.547-34.889,13.278-77.055,4.948-112.986C184.312,34.432,166.478,15.05,144.41,4.033,120.635-7.836,91.532-11.541,59.961-8.225" transform="translate(-5.438 146.238)" fill="none" stroke="#e5e5e5" stroke-miterlimit="10" stroke-width="1"/>
                    <path id="Path_96-2" data-name="Path 96" d="M-141.593,1165.975c-31.829-31.191-35.57-90.595-5.613-141.314,25.691-43.5,71.01-77.922,114.365-106.237,39.758-25.966,79.369-52.77,99.292-86.778,25.352-43.275,14.1-87.034,30.374-139.937,14.557-47.334,38.805-89.768,73.351-124.645,22.162-22.375,50.7-40.81,80.118-57.443,83.316-47.1,152.254-20.411,212.52-69.023,61.634-49.92,76.756-99.789,74.452-129.723-2.713-35.264-35.055-101.219-116.182-77.195-38.274,11.333-79.121,11.3-119.693,13.376-53.355,2.728-99.52-24.17-105.884-68.846-4.8-33.725,9.846-74.994,1.819-110.671A92.085,92.085,0,0,0,153.573,7.654C130.62-5.878,101.985-11.517,70.243-9.636" transform="translate(-1.387 135.984)" fill="none" stroke="#e1e1e1" stroke-miterlimit="10" stroke-width="1"/>
                    <path id="Path_97-2" data-name="Path 97" d="M-141.98,1175.543c-31.437-33.278-36.6-93.5-6.382-145.891,25.43-44.088,71.086-79.3,115.153-107.158,39.9-25.223,79.7-50.272,101.149-83.108,27.262-41.732,20.1-85.749,36.634-138.493,15.075-48.1,36.871-91.563,70.6-128.066,22.024-23.836,51.044-43.816,81.318-61.282,80.1-46.215,147.335-22.9,206.173-70.255,59.569-48.17,76-96.761,74.563-127.094-1.678-35.264-32.6-99.653-109.776-77.817-37.611,10.642-77.574,8.744-117.694,10.6-51.632,2.394-96.431-22.667-104.33-64.911-6.089-32.565,6.418-72.93-1.313-108.347-6.017-27.562-21.45-48.736-41.355-62.436-22.118-15.226-50.3-22.778-82.214-22.338" transform="translate(2.639 125.731)" fill="none" stroke="#dcdcdc" stroke-miterlimit="10" stroke-width="1"/>
                    <path id="Path_98-2" data-name="Path 98" d="M-142.349,1185.106c-31.046-35.368-37.625-96.4-7.149-150.478,25.177-44.676,71.157-80.69,115.945-108.08,40.036-24.484,80.029-47.766,103.008-79.423,29.168-40.184,26.108-84.456,42.9-137.04,15.6-48.857,34.913-93.378,67.849-131.5,21.874-25.314,51.4-46.815,82.522-65.132,76.906-45.268,142.425-25.393,199.835-71.495,57.5-46.416,75.244-93.716,74.673-124.452-.654-35.257-30.118-97.982-103.375-78.433-37.011,9.876-76.028,6.182-115.7,7.823-49.912,2.065-93.4-21.15-102.783-60.96-7.4-31.4,2.992-70.858-4.447-106.013-5.9-27.874-20.114-49.976-38.96-64.992-21.267-16.946-49.014-26.4-81.1-27.4" transform="translate(6.642 115.483)" fill="none" stroke="#d8d8d8" stroke-miterlimit="10" stroke-width="1"/>
                    <path id="Path_99-2" data-name="Path 99" d="M-142.7,1194.67c-30.654-37.467-38.638-99.311-7.917-155.078,24.934-45.262,71.228-82.092,116.744-109,40.169-23.75,80.358-45.25,104.869-75.721,31.072-38.629,32.119-83.153,49.156-135.574,16.127-49.622,32.936-95.212,65.105-134.936,21.707-26.807,51.766-49.808,83.731-69,73.736-44.263,137.523-27.9,193.506-72.741,55.441-44.654,74.472-90.654,74.785-121.8.355-35.242-27.611-96.194-96.978-79.045-36.472,9.017-74.488,3.619-113.71,5.037-48.195,1.742-90.423-19.617-101.244-56.991-8.753-30.232-.433-68.782-7.583-103.669C211.984,57.963,199,34.912,181.2,18.6c-20.4-18.692-47.728-30.026-79.984-32.48" transform="translate(10.625 105.237)" fill="none" stroke="#d4d4d4" stroke-miterlimit="10" stroke-width="1"/>
                    <path id="Path_100-2" data-name="Path 100" d="M-143.037,1204.228c-30.263-39.568-39.642-102.224-8.683-159.69,24.7-45.847,71.3-83.506,117.545-109.927,40.3-23.023,80.686-42.727,106.731-72.007,32.973-37.067,38.138-81.841,55.418-134.1,16.663-50.389,30.934-97.058,62.363-138.387,21.526-28.307,52.143-52.792,84.946-72.871,70.587-43.207,132.627-30.421,187.185-73.994,53.381-42.887,73.691-87.577,74.9-119.134,1.349-35.223-27.061-81.974-90.586-79.655-34.9,1.275-72.949,1.052-111.723,2.242-46.482,1.426-87.508-18.061-99.712-53.006-10.143-29.05-3.856-66.7-10.723-101.315-5.655-28.5-17.392-52.517-34.175-70.121C170.943,1.807,144-11.4,111.575-15.305" transform="translate(14.589 94.994)" fill="none" stroke="#cfcfcf" stroke-miterlimit="10" stroke-width="1"/>
                    <path id="Path_101-2" data-name="Path 101" d="M-143.356,1213.785c-29.873-41.676-40.639-105.143-9.451-164.312,24.475-46.433,71.365-84.935,118.354-110.852,40.43-22.3,81.015-40.2,108.6-68.278,34.872-35.5,44.163-80.52,61.682-132.609,17.2-51.153,28.91-98.913,59.622-141.846,21.33-29.818,52.532-55.764,86.165-76.755,67.461-42.105,127.8-32.87,180.873-75.255,51.38-41.034,72.9-84.485,75.014-116.457,2.329-35.2-24.98-79.942-84.2-80.259-34.132-.183-71.412-1.518-109.739-.562-44.773,1.117-84.661-16.475-98.188-49-11.581-27.848-7.278-64.608-13.867-98.951-5.53-28.819-16-53.811-31.781-72.694C181.134,3.7,154.567-11.362,121.963-16.73" transform="translate(18.534 84.753)" fill="none" stroke="#cbcbcb" stroke-miterlimit="10" stroke-width="1"/>
                    <path id="Path_102-2" data-name="Path 102" d="M-143.661,1223.341c-29.484-43.79-41.626-108.068-10.218-168.947,24.257-47.017,71.435-86.375,119.164-111.777C5.845,921.032,46.63,904.96,75.754,878.083c36.77-33.933,50.2-79.191,67.948-131.111S170.567,646.2,200.586,601.656C221.7,570.322,253.522,542.934,287.977,521c64.356-40.96,122.916-35.41,174.567-76.523,49.318-39.255,72.092-81.378,75.128-113.769,3.3-35.169-22.878-78.04-77.814-80.859-33.359-1.713-69.88-4.089-107.758-3.372-43.066.815-81.876-14.853-96.668-44.986-13.069-26.621-10.7-62.514-17.016-96.579-5.4-29.137-14.6-55.114-29.39-75.27-17.655-24.055-43.875-40.973-76.653-47.8" transform="translate(22.463 74.515)" fill="none" stroke="#c7c7c7" stroke-miterlimit="10" stroke-width="1"/>
                    <path id="Path_103-2" data-name="Path 103" d="M-143.949,1232.894c-29.1-45.908-42.609-111-10.989-173.59,24.048-47.6,71.505-87.831,119.982-112.7,40.689-20.876,81.675-35.114,112.343-60.778,38.668-32.359,56.237-77.852,74.217-129.6,18.307-52.688,24.8-102.637,54.149-148.795,20.889-32.854,53.354-61.664,88.622-84.56,61.27-39.777,118.036-37.962,168.265-77.795C509.9,407.6,533.915,366.811,537.883,334c4.251-35.14-20.736-76.279-71.429-81.458-32.568-3.326-68.352-6.66-105.784-6.189-41.361.521-79.153-13.185-95.155-40.953-14.611-25.355-14.123-60.412-20.168-94.2-5.269-29.457-13.175-56.429-27-77.853-16.7-25.875-42.591-44.642-75.545-52.942" transform="translate(26.375 64.278)" fill="none" stroke="#c2c2c2" stroke-miterlimit="10" stroke-width="1"/>
                    <path id="Path_104-2" data-name="Path 104" d="M-144.226,1242.446c-28.709-48.034-43.582-113.932-11.757-178.246,23.844-48.188,71.575-89.3,120.8-113.63C5.639,930.4,46.828,918,79.04,893.561c40.569-30.784,62.29-76.506,80.494-128.084,18.866-53.457,22.713-104.5,51.412-152.281,20.649-34.379,53.795-64.588,89.858-88.479,58.206-38.559,113.155-40.527,161.967-79.073,45.192-35.688,70.446-75.131,75.36-108.36,5.194-35.108-18.535-74.658-65.046-82.051-31.734-5.045-66.825-9.232-103.809-9.014-39.661.234-76.492-11.462-93.648-36.9-16.211-24.04-17.545-58.305-23.324-91.805-5.135-29.777-11.735-57.747-24.607-80.44-15.715-27.707-41.308-48.322-74.44-58.092" transform="translate(30.273 54.045)" fill="none" stroke="#bebebe" stroke-miterlimit="10" stroke-width="1"/>
                    <path id="Path_105-2" data-name="Path 105" d="M-144.488,1252c-28.322-50.162-44.547-116.872-12.528-182.91,23.648-48.773,71.65-90.785,121.632-114.559,40.946-19.476,82.342-30.01,116.1-53.226,42.469-29.206,68.349-75.15,86.773-126.557,19.434-54.224,20.609-106.364,48.676-155.775,20.4-35.905,54.258-67.487,91.1-92.407,55.163-37.311,108.278-43.1,155.67-80.358,43.127-33.9,69.606-71.993,75.481-105.64,6.124-35.076-16.249-73.176-58.663-82.643-30.836-6.882-65.3-11.8-101.837-11.844-37.963-.046-73.885-9.679-92.146-32.839-17.87-22.665-20.969-56.193-26.484-89.407-5-30.1-10.282-59.07-22.215-83.032-14.715-29.547-40.023-52.01-73.334-63.258" transform="translate(34.156 43.812)" fill="none" stroke="#bababa" stroke-miterlimit="10" stroke-width="1"/>
                    <path id="Path_106-2" data-name="Path 106" d="M-144.739,1261.542c-27.936-52.294-45.505-119.817-13.3-187.584C-134.58,1024.6-86.314,981.673-35.576,958.47c41.078-18.786,82.654-27.5,117.985-49.432,44.341-27.694,74.418-73.786,93.057-125.019,20.008-54.993,18.488-108.225,45.941-159.279,20.128-37.431,54.747-70.359,92.346-96.346,52.14-36.038,103.348-45.759,149.375-81.647,41.015-32.167,68.751-68.844,75.6-102.908,7.045-35.047-13.85-71.825-52.277-83.231a364.092,364.092,0,0,0-99.865-14.684c-36.269-.317-71.323-7.827-90.648-28.76-19.586-21.217-24.392-54.074-29.65-87-4.859-30.422-8.814-60.4-19.822-85.63C232.773,13.141,207.727-11.173,174.239-23.9" transform="translate(38.027 33.582)" fill="none" stroke="#b5b5b5" stroke-miterlimit="10" stroke-width="1"/>
                    <path id="Path_107-2" data-name="Path 107" d="M-144.979,1271.09c-27.55-54.435-46.456-122.769-14.07-192.271,23.274-49.949,71.8-93.8,123.3-116.417,41.212-18.1,83-24.929,119.873-45.623,46.259-26.1,80.5-72.415,99.35-123.474,20.589-55.763,16.351-110.084,43.2-162.792,19.848-38.957,55.265-73.2,93.6-100.3,49.139-34.74,98.476-48.35,143.08-82.942,38.951-30.361,67.885-65.688,75.719-100.168,7.956-35.017-11.309-70.586-45.888-83.817-28.717-10.988-62.269-16.931-97.894-17.529-34.578-.579-68.794-5.9-89.154-24.666-21.356-19.685-27.818-51.951-32.82-84.58-4.714-30.747-7.333-61.72-17.427-88.232a128.584,128.584,0,0,0-71.124-73.628" transform="translate(41.885 23.352)" fill="none" stroke="#b1b1b1" stroke-miterlimit="10" stroke-width="1"/>
                    <path id="Path_108-2" data-name="Path 108" d="M-145.2,1280.633c-27.165-56.578-47.4-125.726-14.846-196.965,23.1-50.539,71.885-95.329,124.136-117.348,41.35-17.424,83.355-22.345,121.767-41.8,48.181-24.5,86.684-71.029,105.648-121.921,21.282-56.522,14.2-111.938,40.467-166.31,19.559-40.484,55.824-76,94.851-104.253,46.164-33.426,93.6-50.949,136.786-84.242,36.888-28.551,67.007-62.525,75.839-97.416,8.858-34.993-8.6-69.434-39.5-84.4-27.42-13.28-60.76-19.488-95.927-20.38-32.889-.835-66.281-3.9-87.663-20.56-23.171-18.058-31.18-49.846-36-82.152-4.5-31.1-5.84-63.044-15.03-90.841-11.6-35.1-36.172-63.132-70.021-78.832" transform="translate(45.731 13.126)" fill="none" stroke="#adadad" stroke-miterlimit="10" stroke-width="1"/>
                    <path id="Path_109-2" data-name="Path 109" d="M-145.463,1290.184c-26.779-58.728-48.241-128.674-15.62-201.671C-138.092,1037.4-89.114,991.64-36.1,970.236,5.384,953.482,47.6,950.482,87.558,932.264c50.105-22.891,92.739-69.644,111.954-120.357,21.826-57.3,12.033-113.79,37.728-169.838,19.261-42.011,56.429-78.749,96.111-108.222,43.212-32.1,88.727-53.556,130.488-85.546,34.821-26.734,66.117-59.357,75.961-94.655,9.751-34.97-5.685-68.33-33.1-84.982-25.906-15.736-59.255-22.038-93.957-23.24-31.2-1.08-63.773-1.813-86.174-16.439-25.018-16.333-34.64-47.7-39.178-79.718-4.379-31.416-4.338-64.365-12.632-93.452-10.536-36.953-34.885-66.858-68.916-84.051" transform="translate(49.622 2.892)" fill="none" stroke="#a8a8a8" stroke-miterlimit="10" stroke-width="1"/>
                    <path id="Path_110-2" data-name="Path 110" d="M-145.623,1299.718c-26.4-60.88-49.274-131.658-16.4-206.383,22.754-51.721,72.063-98.434,125.833-119.211C5.445,958.037,47.878,956.968,89.38,940c52.034-21.28,98.807-68.255,118.275-118.786,22.371-58.069,9.852-115.637,34.986-173.372,18.953-43.536,57.09-81.447,97.381-112.2s83.856-56.173,124.2-86.855c32.755-24.914,65.22-56.184,76.087-91.884,10.64-34.954-2.556-67.229-26.7-85.562s-57.76-24.577-92-26.1c-29.524-1.317-61.25.347-84.692-12.3-26.885-14.508-38.111-45.542-42.37-77.274s-2.828-65.685-10.233-96.07c-9.458-38.809-33.6-70.592-67.819-89.28" transform="translate(53.391 -7.324)" fill="none" stroke="#a4a4a4" stroke-miterlimit="10" stroke-width="1"/>
                </g>
            </g>
        </g>
    </symbol>
</svg>
